<svg xmlns="http://www.w3.org/2000/svg" width="55.501" height="64.782" viewBox="0 0 55.501 64.782">
  <path id="União_5" data-name="União 5" d="M22.4,63.685a1.473,1.473,0,0,1-.018-2.945l3.3.024L25.616,41.33a6.8,6.8,0,0,1-2.015-.811c-4.668-2.387-8.174-4.354-11.385-6.4a50.969,50.969,0,0,1-5.361-3.933,22.611,22.611,0,0,1-4.6-5.113A14.49,14.49,0,0,1,.034,18.283a19.05,19.05,0,0,1,.1-3.459l.053-.516a1.884,1.884,0,0,1,.076-.261,1.468,1.468,0,0,1,.084-.284c0-.005.008-.011.01-.016A1.486,1.486,0,0,1,1.7,12.909l24.754.177a1.495,1.495,0,0,1-.024,2.99L2.99,15.91a16.95,16.95,0,0,0-.016,2.2,11.55,11.55,0,0,0,1.778,5.411,19.975,19.975,0,0,0,4.036,4.449,49.092,49.092,0,0,0,5.039,3.688c3.114,1.981,6.557,3.914,11.164,6.27.04.018.076.039.113.061a3.661,3.661,0,0,0,3.337.342L32.87,36.1c3.235-1.712,5.922-3.156,8.543-4.866a32.38,32.38,0,0,0,7.276-6.1.966.966,0,0,1,.068-.076,16.6,16.6,0,0,0,1.3-1.873,2.653,2.653,0,0,0,.227-.453c.063-.142.126-.284.195-.422s.134-.292.205-.44a1.553,1.553,0,0,0,.2-.506,11.132,11.132,0,0,0,.519-2.126,1.066,1.066,0,0,1,.021-.163,12,12,0,0,0,.124-2.21,1.474,1.474,0,1,1,2.948.018,14.559,14.559,0,0,1-.166,2.679,15.289,15.289,0,0,1-.608,2.595,5.356,5.356,0,0,1-.4,1.019c-.05.1-.1.2-.142.3a.989.989,0,0,1-.055.121,8.563,8.563,0,0,1-.653,1.27,15.974,15.974,0,0,1-1.546,2.176,35.064,35.064,0,0,1-7.9,6.649c-2.729,1.781-5.474,3.259-8.806,5.021L29.7,40.988a6.036,6.036,0,0,1-1.141.377l.066,19.422,3.287.024a1.473,1.473,0,0,1,.018,2.945Zm4.278-28.034a1.242,1.242,0,0,1-.282-.116L13.74,28.32a1.208,1.208,0,0,1,.606-2.258l23.5.134-5.45-10.432c-.008-.013-6.033-11.549-6.033-11.549-.045-.092-.063-.124-.082-.158A2.553,2.553,0,0,1,26,3.4a1.843,1.843,0,0,1,.06-.909,1.678,1.678,0,0,1,.869-1A15.088,15.088,0,0,1,37.135.452a.649.649,0,0,1,.095.029,2.43,2.43,0,0,1,.548.169,1.223,1.223,0,0,1,.253.05,15.124,15.124,0,0,1,8.92,7.458l.005.008,0,.005a15.141,15.141,0,0,1,1.03,11.556l0,.011,0,.011,0,.008a15.157,15.157,0,0,1-7.081,8.7.574.574,0,0,0-.05.032l-.277.148a.6.6,0,0,0-.055.029l-.005,0-12.95,6.886a1.208,1.208,0,0,1-.885.1Zm.337-2.545L35.492,28.6,18.943,28.5Zm13.435-7.257A12.688,12.688,0,0,0,45.2,20.164l-9.241-2.9ZM36.7,14.909l9.241,2.9a12.7,12.7,0,0,0-.656-7.381ZM35.56,12.719l8.582-4.484A12.686,12.686,0,0,0,38.46,3.478ZM28.719,3.4,33.2,11.982l2.9-9.236a12.533,12.533,0,0,0-2.593-.268A12.845,12.845,0,0,0,28.719,3.4Z" transform="translate(0.501 0.526)" stroke="rgba(0,0,0,0)" stroke-miterlimit="10" stroke-width="1"/>
</svg>
