<svg xmlns="http://www.w3.org/2000/svg" width="56.841" height="55.304" viewBox="0 0 56.841 55.304">
  <path id="Caminho_1069" data-name="Caminho 1069" d="M205.565,36.22l0,0c-.834-.8-1.695-1.593-2.632-2.436s-1.85-1.7-2.742-2.53c-1.471-1.375-2.992-2.8-4.565-4.117-.547-.46-1.056-.97-1.547-1.464l-.029-.029c-.335-.337-.682-.685-1.033-1.008q-1.882-1.727-3.771-3.446l-.181-.164c-2.336-2.13-4.751-4.333-7.108-6.528a6.35,6.35,0,0,0-2.728-1.643,5.211,5.211,0,0,0-5.031.985c-1.96,1.718-3.9,3.531-5.775,5.284q-1.2,1.123-2.4,2.239L164.877,22.4q-1.259,1.147-2.514,2.3l-.687.633q-5.855,5.391-11.7,10.789a1.654,1.654,0,0,0-.3,2.357c.623.775,1.309.835,2.3.2a9.867,9.867,0,0,0,1.519-1.306l.034-.033c.135-.133.271-.266.408-.4.05-.048.1-.1.149-.149a2.308,2.308,0,0,1,.839-.617l.57-.221v5.136q0,10.317,0,20.632v.105a6.782,6.782,0,0,0,.058,1.106,5.733,5.733,0,0,0,5.846,4.98c8.936.01,17.776.007,27.577,0l5.107,0a5.748,5.748,0,0,0,1.013-.068,5.814,5.814,0,0,0,4.844-6.328l.007-.275c.005-.172.01-.343.01-.514V55.506q0-9.132.008-18.264c0-.033,0-.068-.005-.1a1.161,1.161,0,0,1,.183-.84l.274-.383.6.543c.173.155.336.3.494.456.123.119.245.239.366.359l.041.04a13.25,13.25,0,0,0,1.593,1.416,1.518,1.518,0,0,0,2.284-.323,1.539,1.539,0,0,0-.216-2.185m-23.54,28.189a.976.976,0,0,1-.725.231c-2.572-.02-4.906-.02-7.137,0h-.029a.983.983,0,0,1-.725-.237,1.006,1.006,0,0,1-.238-.759c.016-1.7.014-3.429.012-5.1l0-3.873c0-1.613-.007-3.281.007-4.922a4.213,4.213,0,0,1,3.087-4.186,4.71,4.71,0,0,1,5.226,1.681,4.28,4.28,0,0,1,.751,2.481q0,2.71,0,5.421v.6q0,3.97.008,7.938a.976.976,0,0,1-.236.725m14.633-31.1v0c0,.046.008.093.008.137l0,23.54c0,.078.005.154.01.232l.007.135,0,.782q-.006,1.9-.015,3.806a2.459,2.459,0,0,1-2.694,2.685q-1.331,0-2.659,0h-.253c-1.471,0-2.991,0-4.483.014a1.08,1.08,0,0,1-.8-.248,1.093,1.093,0,0,1-.253-.815c.017-4.472.019-8.975.005-13.764a7.835,7.835,0,0,0-6.221-7.668,7.838,7.838,0,0,0-9.4,7.495c-.033,4.634-.017,9.372,0,13.827a1.206,1.206,0,0,1-.271.912,1.135,1.135,0,0,1-.816.263h-.058c-1.619-.028-3.272-.024-4.87-.021l-2.264,0c-1.925,0-2.861-.931-2.861-2.844V55.262c0-7.013.005-14.264-.037-21.394a2.819,2.819,0,0,1,1.047-2.349c2.014-1.82,4.04-3.7,6-5.512l1.949-1.8c.1-.089.188-.185.278-.281l.152-.16,7.022-6.433c.257-.237.514-.475.776-.707a2.447,2.447,0,0,1,3.553.026q4.226,3.887,8.444,7.782l4.619,4.262q1.835,1.7,3.676,3.387a.994.994,0,0,1,.406,1.186c0,.015,0,.031.006.047" transform="translate(-149.302 -12.613)"/>
</svg>
