<svg xmlns="http://www.w3.org/2000/svg" width="15.376" height="15.371" viewBox="0 0 15.376 15.371">
  <path id="Caminho_1070" data-name="Caminho 1070" d="M15.376,14.861a.756.756,0,0,1-.343.434.615.615,0,0,1-.666-.046,1.362,1.362,0,0,1-.179-.16q-2.065-2.063-4.129-4.128c-.046-.046-.084-.1-.134-.157l-.257.188a5.913,5.913,0,0,1-2.912,1.134,5.9,5.9,0,0,1-4.529-1.352,5.911,5.911,0,0,1-2.168-3.9A5.833,5.833,0,0,1,1.044,2.7,5.973,5.973,0,0,1,5.309.054L5.677,0h.811c.173.023.346.04.518.069A5.984,5.984,0,0,1,10.6,2.018,5.932,5.932,0,0,1,12.081,7.1,5.818,5.818,0,0,1,10.973,9.7l-.171.232a1.528,1.528,0,0,1,.147.114Q12.978,12.067,15,14.1a4.449,4.449,0,0,1,.374.494ZM10.892,6.087a4.8,4.8,0,1,0-4.807,4.8,4.812,4.812,0,0,0,4.807-4.8" transform="translate(0)" fill="#40e0d0"/>
</svg>
