<svg xmlns="http://www.w3.org/2000/svg" width="43.647" height="61.851" viewBox="0 0 43.647 61.851">
  <path id="União_7" data-name="União 7" d="M20.913,60.8c-.132-.129-.271-.25-.414-.374a5.216,5.216,0,0,1-.885-.906l-1.9-2.7c-2.927-4.167-5.956-8.477-8.848-12.774A61.135,61.135,0,0,1,1.712,30.327,26.825,26.825,0,0,1,0,20.873a21.328,21.328,0,0,1,41.98-4.855,23.111,23.111,0,0,1-.677,13.24,54.1,54.1,0,0,1-6.594,13.329c-2.226,3.369-4.576,6.741-6.846,10q-1.51,2.169-3.014,4.341c-.182.261-.358.524-.535.788-.4.6-.819,1.22-1.267,1.8a7.249,7.249,0,0,1-.906.917c-.134.121-.269.242-.4.369ZM19.586,3.384C12.9,4.058,7.984,7.538,4.968,13.726c-2,4.094-2.255,8.543-.787,13.6A49.663,49.663,0,0,0,9.655,39.178c2.6,4.331,5.582,8.506,8.464,12.542q1.462,2.047,2.914,4.107a1.065,1.065,0,0,0,.121.137l.187.2.193-.224a1.852,1.852,0,0,0,.137-.163q1.359-1.948,2.729-3.891c2.084-2.964,4.241-6.027,6.3-9.083a60.823,60.823,0,0,0,7.076-13.319A21.7,21.7,0,0,0,39.243,19,17.962,17.962,0,0,0,21.44,3.29,18.436,18.436,0,0,0,19.586,3.384ZM21.33,31.723a10.586,10.586,0,1,1,.008-21.172h0a10.586,10.586,0,0,1-.005,21.172ZM16.174,15.962a7.318,7.318,0,0,0,5.161,12.492h0a7.344,7.344,0,0,0,7.315-7.336,7.324,7.324,0,0,0-7.289-7.3h-.019A7.285,7.285,0,0,0,16.174,15.962Z" transform="translate(0.5 0.551)" stroke="rgba(0,0,0,0)" stroke-miterlimit="10" stroke-width="1"/>
</svg>
