<svg xmlns="http://www.w3.org/2000/svg" width="46.884" height="56.248" viewBox="0 0 46.884 56.248">
  <path id="União_6" data-name="União 6" d="M23.425,56.247q-6.674,0-13.345,0A10.515,10.515,0,0,1,3.8,54.474,8.334,8.334,0,0,1,.122,48.189Q0,46.771,0,45.366A28.508,28.508,0,0,1,2.019,34.622a11.507,11.507,0,0,1,5.116-6.169A10.285,10.285,0,0,1,12.3,27.2a3.932,3.932,0,0,1,1.68.572c.851.464,1.636,1.041,2.463,1.546a12.5,12.5,0,0,0,14.022,0c.669-.411,1.349-.817,1.978-1.286a4.682,4.682,0,0,1,3.7-.756,10.419,10.419,0,0,1,7.966,5.719,23.5,23.5,0,0,1,2.56,9.122c.141,1.448.215,2.907.217,4.363q0,.312,0,.624a8.983,8.983,0,0,1-8.361,9.041c-.672.063-1.348.1-2.026.1q-3.268.008-6.534.007ZM37.376,52.93c3.86-.042,6.227-2.475,6.225-6.31,0-.03,0-.06,0-.091a42.836,42.836,0,0,0-.237-4.383,20.229,20.229,0,0,0-2.11-7.5,7.074,7.074,0,0,0-6.038-4.131,1.407,1.407,0,0,0-.767.174c-.832.5-1.63,1.046-2.455,1.557a16.23,16.23,0,0,1-7.368,2.463,16.015,16.015,0,0,1-10-2.642c-.727-.461-1.443-.935-2.176-1.383a1.184,1.184,0,0,0-.606-.187,6.877,6.877,0,0,0-3.24.914A8.742,8.742,0,0,0,5,36.039a26.194,26.194,0,0,0-1.693,9.953q0,.626.017,1.254a5.444,5.444,0,0,0,2.8,4.81,7.574,7.574,0,0,0,3.909.9h13.4v-.008C28.077,52.944,32.727,52.983,37.376,52.93ZM10.707,19.093a12.815,12.815,0,0,1-1.153-5.406A13.581,13.581,0,0,1,20.293.282C20.809.177,21.331.095,21.85,0h2.526c.732.148,1.467.274,2.194.443a13.639,13.639,0,0,1,9.907,11.009,17.118,17.118,0,0,1,.151,2.168,12.5,12.5,0,0,1-2.088,7.176A13.261,13.261,0,0,1,23.96,27.054q-.476.032-.941.032A13.627,13.627,0,0,1,10.707,19.093Zm2.139-5.466a10.235,10.235,0,1,0,0-.133C12.845,13.538,12.845,13.583,12.846,13.627Z"/>
</svg>
